<svg xmlns="http://www.w3.org/2000/svg" version="1.1" xmlns:xlink="http://www.w3.org/1999/xlink" viewBox="0 0 12.975600473508585 3.417600043046235"><g transform="matrix(0.7144260680100194,0,0,0.7144260680100194,2.3407353647063704,1.1504760493732875)"><rect width="14.34170051655482" height="14.34170051655482" x="-1.3661000430462353" y="-6.3893502582774095" fill="#ffffff"></rect><g transform="matrix(1,0,0,1,0,0)" clip-path="url(#SvgjsClipPath55625)"><g clip-path="url(#SvgjsClipPath55620d7809b8c-c101-4372-a18a-88c2dcd6ee2e)"><path d=" M 7.559565430955118 -0.14322039407457643 C 7.580555121751562 -0.14322039405711795 7.599477992670458 -0.1305763963740192 7.607510201844484 -0.11118436874627882 C 7.6155424110185095 -0.09179234111853843 7.6111021219491635 -0.0694712848217581 7.5962598665742815 -0.054629634808462835 C 7.5814176111994005 -0.03978798479516768 7.55909637381426 -0.035348606142742545 7.539704673813914 -0.04338160625645676 C 7.520312973813568 -0.05141460637017098 7.5076697479517716 -0.0703379929864977 7.507670604044878 -0.09132768376548378 C 7.507674110343589 -0.11998661036730664 7.530906504234284 -0.14321805669312368 7.559565430955199 -0.14322039407457646 Z M 6.567002256106379 0.5429266659955707 C 6.490132520839661 0.5180031141971633 6.438071654694321 0.4463944017156258 6.438071654694321 0.36558512233371837 C 6.438071654694321 0.28477584295181096 6.490132520839661 0.21316713047027347 6.567002256106379 0.18824357867186592 C 6.530524166083761 0.13084687918693805 6.528201046128074 0.05813877598436373 6.560940671933272 -0.0014695209683000532 C 6.59368029773847 -0.06107781792096373 6.65628564860568 -0.09812421046380432 6.724293237107301 -0.09813255645152749 C 6.724839320203102 -0.09813255645152749 6.725376936894316 -0.09811562364235535 6.725914553585532 -0.09811562364235535 C 6.760699500709168 -0.17953336549240478 6.847954852705215 -0.22525081126224564 6.934695742601958 -0.207506537417522 C 7.021436632498702 -0.18976226357279835 7.0837292772754505 -0.11345231856960608 7.083747143415249 -0.02491508959130251 L 7.083747143415249 0.015645338179352097 L 6.994828729250181 0.015645338179352097 C 6.993509381202187 0.014093164005241632 6.9921350015243835 0.012602371264379963 6.990705590216771 0.011172959956767259 C 6.969459886133672 -0.010079503755350522 6.937503417118929 -0.016440003761070215 6.909739236226149 -0.0049422902851434525 C 6.88197505533337 0.006555423190783283 6.863871662785999 0.03364673269196422 6.863871662785999 0.06369747570809442 C 6.863871662785999 0.09374821872422467 6.88197505533337 0.12083952822540567 6.909739236226149 0.13233724170133238 C 6.937503417118929 0.14383495517725908 6.969459886133672 0.13747445517153944 6.990705590216771 0.11622199145942164 C 6.992848352564998 0.11408118045531218 6.994859958436949 0.11181299941417078 6.99672943707975 0.10942981838025695 L 7.080633623128727 0.10941711877337795 L 7.083757726420982 0.11253698886334013 L 7.083757726420982 0.21236859853983664 L 6.89710102111332 0.21236859853983664 C 6.8793510738619945 0.18735290438470253 6.847859841602262 0.17609630047843655 6.818274230339127 0.18419180464276802 C 6.788688619075992 0.19228730880709943 6.767315776141119 0.21800909773439303 6.764775129243894 0.24857690260866683 C 6.76223448234667 0.2791447074829407 6.779067654039893 0.3080419940594587 6.806910822511906 0.32091069838146097 C 6.83475399098392 0.33377940270346323 6.867671467964791 0.3278761366622968 6.889307695691854 0.30613402933042283 L 7.046073759608441 0.30613402933042283 L 7.083749260016396 0.34380952973837847 L 7.083749260016396 0.3985236693757748 L 7.080625156724141 0.40163507306115104 L 6.852491535349383 0.40163507306115104 C 6.832471003266754 0.37834917174794686 6.800020918191852 0.37007731101896185 6.771296185353111 0.3809375425166219 C 6.74257145251437 0.3917977740142819 6.723710777976257 0.41946917906092723 6.724103733723077 0.4501758638481342 C 6.724496689469897 0.480882548635341 6.744059297703156 0.5080622480523709 6.773052536743874 0.5181838583376797 C 6.802045775784592 0.5283054686229882 6.834273557636856 0.5192059203830521 6.853691648199456 0.4954153200597629 L 7.0837429102129565 0.4954153200597629 L 7.0837429102129565 0.5710457122270141 L 6.98126978230561 0.5710457122270141 C 6.961820830969428 0.5472794463958324 6.929580485695182 0.5382213236784654 6.900599834105012 0.5483809955749761 C 6.871619182514841 0.5585406674714868 6.852091913221996 0.5857468286216772 6.85173981759609 0.6164546961527482 C 6.851387721970183 0.6471625636838194 6.87028604920505 0.6748093117437508 6.89902613125516 0.6856308081000124 C 6.927766213305269 0.6964523044562743 6.960205775612584 0.688135799909575 6.980194548923181 0.6648217260233331 L 7.0837429102129565 0.6648217260233331 L 7.0837429102129565 0.7561001504667648 C 7.083725934136633 0.8446386686215319 7.021431609665148 0.9209496856713963 6.934689053963851 0.9386922479342474 C 6.847946498262554 0.9564348101970988 6.760691257105434 0.9107130749374204 6.725910320383271 0.8292922181133076 C 6.725372703692024 0.8292922181132316 6.724835087000809 0.8293176173269898 6.7242890039050085 0.8293176173269898 C 6.656279016504893 0.8293070839727332 6.593672534051081 0.7922577400165758 6.560933054530342 0.7326466254671353 C 6.528193575009603 0.6730355109176949 6.530517985828599 0.6003249707796536 6.566998022904086 0.5429266659955709 Z M 6.7971297157611525 0.39857446780329125 C 6.772322131339639 0.39857474824833533 6.751162656331923 0.41653640582551327 6.747133683007811 0.4410146332707919 C 6.7431047096837 0.4654928607160706 6.757391143205833 0.4892887078903068 6.7808899552234765 0.4972399391577675 C 6.80438876724112 0.5051911704252281 6.830189049829169 0.49495936003318247 6.841851381385855 0.47306401195257114 L 7.110217357353557 0.47306401195257114 L 7.153961153248569 0.4293223326587053 L 7.276770584971626 0.3065065511322094 L 7.300279673905961 0.2829974621978744 L 7.396881350232877 0.2829974621978744 C 7.399066830998342 0.28657121976422 7.401667908360166 0.2898735436040886 7.404630227030267 0.2928354243268732 C 7.425213966870393 0.3133276679095461 7.458505054687111 0.31327823095735524 7.479027842301402 0.2927249445681605 C 7.499550629915694 0.27217165817896577 7.499550629915694 0.23888053365556333 7.479027842301402 0.2183272472663686 C 7.458505054687111 0.19777396087717375 7.425213966870393 0.19772452392498285 7.404630227030267 0.21821676750765584 C 7.401667778442336 0.2211824190047585 7.399066729212235 0.22448825950398194 7.396881350232877 0.22806531264238716 L 7.300279673905962 0.22806531264238716 L 7.276770584971627 0.20455410710690558 L 7.15396115324857 0.08174679198499568 L 7.110217357353558 0.03799664628654381 L 6.983314419013143 0.03799664628654381 C 6.971535016022687 0.017327257091143744 6.947211030555159 0.0073129533437208405 6.924293425092694 0.013697414510435102 C 6.901375819630229 0.020081875677149363 6.885733220760714 0.0412302006504805 6.886337402877082 0.06501281927191782 C 6.886941584993452 0.0887954378933552 6.903637832139982 0.1091222153013014 6.926850052526753 0.11433477793770741 C 6.950062272913524 0.11954734057411337 6.973846396426023 0.10831088128693483 6.98456109708844 0.08707004386847927 L 7.089895869745874 0.08707004386847927 L 7.119263710653761 0.11644635118095215 L 7.242073142376817 0.23925154970171558 L 7.25834557199122 0.25552609591726444 L 7.242073142376817 0.2718112251385459 L 7.177415210553097 0.33646492375997367 L 7.119394939924844 0.2784510029351615 L 7.075640561024099 0.2347135568435887 L 6.884132605888626 0.2347135568435887 C 6.87506756270534 0.21349025262868904 6.852807743004814 0.20107239286970457 6.829986649612538 0.20450770160314002 C 6.807165556220261 0.20794301033657558 6.789547931575074 0.22636370836773 6.787132612762259 0.24931517639802137 C 6.784717293949445 0.27226664442831255 6.798114404709538 0.2939512066183943 6.819720449645088 0.30206184604793523 C 6.841326494580637 0.31017248547747606 6.865683659640649 0.30266040691471835 6.87896809909113 0.2837890710266709 L 7.055323306618707 0.2837890710266708 L 7.084697497330033 0.3131611451368506 L 7.1427071849525525 0.3711814157651023 L 7.11926371065376 0.39460795725472325 L 7.089895869745874 0.4239800313649031 L 6.841061889158206 0.4239800313649031 C 6.832025878279926 0.40825309882593613 6.815269800079922 0.39855871255633174 6.797131832362299 0.3985638847975586 Z M 6.924760764895969 0.5666325988365315 C 6.900150803193583 0.5666352133039811 6.879101893358959 0.5843222859368384 6.87485953053942 0.6085638324950875 C 6.870617167719883 0.6328053790533361 6.884408440669639 0.6565896161437172 6.907554883835525 0.6649497830437696 C 6.930701327001412 0.6733099499438222 6.9565079118540565 0.6638278973290463 6.968735270315951 0.6424704179161413 L 7.05111338693829 0.6424704179161413 L 7.055378338248517 0.6447140151314463 L 7.05111338693829 0.6424704179161413 L 7.167892621994928 0.6424704179161413 L 7.211638534491087 0.5987245054199823 L 7.222342186489009 0.5880293198266453 L 7.222604645031177 0.5882981281722526 L 7.241753535603692 0.5691577040043232 L 7.364562967326749 0.4463482722812669 L 7.393932924835783 0.41697619817108694 L 7.49926558089207 0.41697619817108694 C 7.509980917340355 0.4382114258886684 7.533761393268934 0.4494430106788391 7.556968555019427 0.4442294730215523 C 7.58017571676992 0.43901593536426525 7.596867231105146 0.4186922329091148 7.597470268388184 0.39491430874713734 C 7.598073305671222 0.3711363845851598 7.582433454581603 0.34999271909917856 7.5595204003750105 0.3436095162711879 C 7.536607346168419 0.33722631344319726 7.512288114077885 0.34723803071923237 7.5005101423662195 0.36790280058915154 L 7.373607204025805 0.36790280058915154 L 7.329863408130793 0.41165294628760346 L 7.319161872734016 0.42234389867864736 L 7.318899414191848 0.42208355673762615 L 7.299748407018186 0.44121551450096946 L 7.17693897529513 0.5640270628251725 L 7.14756690118495 0.5933991369353522 L 6.969442215098888 0.5933991369353522 C 6.9606286093605245 0.5769155761519373 6.943452671764048 0.5666262863913949 6.92476076489597 0.5666325988365315 Z M 7.569915610561573 0.4933283513292997 C 7.586405460862597 0.49333302702150134 7.599770100325636 0.5067030359738007 7.599768152248249 0.5231928868226503 C 7.599766204170861 0.5396827376714999 7.586398406069674 0.5530495885080831 7.569908555124179 0.5530503680455632 C 7.553418704178684 0.5530511475830435 7.540049642334289 0.5396855606987243 7.540046135181962 0.5231957101077638 C 7.5400455736668786 0.5152738551849505 7.543192414461744 0.5076763285722405 7.548794210284122 0.5020749297025182 C 7.554396006106497 0.49647353083279594 7.561993755698452 0.4933272284383922 7.569915610561578 0.4933283513292997 Z M 7.617962456587448 0.611038890890403 C 7.646623178085083 0.611038890890403 7.669857283497688 0.6342729963030085 7.669857283497688 0.6629337178006423 C 7.669857283497688 0.6915944392982758 7.646623178085083 0.7148285447108813 7.617962456587448 0.7148285447108813 C 7.589301735089815 0.7148285447108813 7.566067629677209 0.691594439298276 7.566067629677209 0.6629337178006423 C 7.56606879855248 0.6342734804809753 7.589302219267758 0.6110400597656866 7.617962456587437 0.611038890890403 Z M 7.617962456587448 0.014868545558581414 C 7.646620840011687 0.014870883587003003 7.669851154712615 0.038104988929435035 7.669848816747769 0.06676337235367846 C 7.669846478782923 0.09542175577792184 7.646612373492025 0.1186520705303924 7.617953990067777 0.11864973262912232 C 7.589295606643528 0.11864739472785218 7.566065291839515 0.09541328948848832 7.566067629677209 0.06675490606423456 C 7.566068190961624 0.05299249278899093 7.571536116421823 0.03979403700600681 7.581268406039273 0.030063335167294092 C 7.591000695656723 0.020332633328581484 7.60420004340394 0.014866861384774555 7.617962456587513 0.01486854555858147 Z M 7.426549748503569 0.8504709291852544 C 7.455208473977037 0.8504756049403428 7.47843749866366 0.8737112627653096 7.478433991976468 0.9023699884056708 C 7.478430485289276 0.9310287140460314 7.4551957750591695 0.9542586865594396 7.426537049299606 0.9542563489401492 C 7.397878323540043 0.9542540113208589 7.374647403238505 0.9310202487242771 7.374648571789891 0.9023615228932007 C 7.374648009915382 0.8885972757769418 7.380116311315859 0.8753967698162237 7.38985009613994 0.8656649697775944 C 7.399583880964021 0.8559331697389654 7.412785501788079 0.8504675604002714 7.42654974850356 0.8504709291852544 Z M 7.426549748503569 -0.24424576679770696 C 7.45520764783433 -0.24424226012421615 7.478437278122878 -0.2210088394089259 7.4784361090092215 -0.19235093988746782 C 7.478433771862208 -0.16369985339357862 7.455209301116192 -0.14047348754580882 7.426558214908269 -0.14046881258410782 C 7.397898319784372 -0.1404653054042147 7.37466171371124 -0.16369527813276363 7.374657038194477 -0.19235517308976086 C 7.374661713362701 -0.22101643752514352 7.397896950115278 -0.24424883158328908 7.426558214908152 -0.24425000000000002 Z M 7.2699784118924615 -0.14322039407457643 C 7.2909682952820605 -0.14322125015808135 7.309891815795726 -0.13057779527073188 7.317924691880226 -0.11118583540967347 C 7.325957567964725 -0.09179387554861504 7.321517801360622 -0.06947247208421206 7.306675712467178 -0.05463038319076746 C 7.2918336235737335 -0.03978829429732289 7.2695122201093305 -0.03534852769322083 7.250120260248272 -0.043381403777720234 C 7.230728300387213 -0.05141427986221969 7.218084845499864 -0.07033780037588525 7.2180857015833695 -0.09132768376548378 C 7.2180880391514854 -0.11998626798845555 7.241319827669708 -0.1432180565065809 7.269978411892571 -0.14322039407457646 Z M 7.4460267122537935 0.6726912490860733 C 7.45810560414193 0.6726895368609676 7.468996082513236 0.6799643681359702 7.473619660785801 0.6911233177341385 C 7.478243239058366 0.7022822673323066 7.475689321796259 0.7151276243088163 7.467148860774483 0.7236692961423921 C 7.4586083997527055 0.7322109679759679 7.445763404957617 0.7347667062156598 7.434603800016767 0.7301447099217266 C 7.423444195075915 0.7255227136277937 7.416167820001273 0.7146332666717377 7.416167819879916 0.7025543746622445 C 7.416170156447693 0.6860640467577761 7.429536384846273 0.6726959233810459 7.446026712253796 0.6726912490860735 Z M 7.3969384984638324 0.5573237869941614 C 7.4090171978212815 0.5573246432144126 7.419905995135483 0.5646015610392328 7.424527324515176 0.5757612336896802 C 7.4291486538948694 0.586920906340128 7.426592393230501 0.5997655539178053 7.418050554971566 0.6083055760523761 C 7.409508716712631 0.616845598186947 7.396663525867773 0.6193991275363189 7.385504836138787 0.6147754252932052 C 7.3743461464098 0.6101517230500912 7.367071544119062 0.5992613786344854 7.367073256286515 0.5871826793680395 C 7.367073817590459 0.5792626806143801 7.370220708057401 0.5716673183262289 7.375821588281546 0.5660676289341713 C 7.381422468505693 0.5604679395421135 7.389018499769904 0.5573226642072162 7.39693849846385 0.5573237869941614 Z M 7.566548098137469 0.12842419706907693 C 7.578628231314878 0.1284224849107098 7.589519749244204 0.13569828997500516 7.594143407020825 0.14685855024437694 C 7.598767064797446 0.15801881051374878 7.5962121904783295 0.17086541003860317 7.58767024630515 0.1794073542117826 C 7.57912830213197 0.18794929838496194 7.566281702607116 0.19050417270407927 7.555121442337744 0.18588051492745838 C 7.543961182068372 0.18125685715083756 7.536685377004076 0.17036533922151076 7.536687089162443 0.15828520604410162 C 7.536686527733026 0.15036540196055864 7.539832408997805 0.1427698112788427 7.545432556185014 0.13716966409163628 C 7.551032703372224 0.13156951690442992 7.558628294053941 0.12842363563965498 7.566548098137476 0.12842419706907693 Z M 7.392197311895641 0.004941686181428984 C 7.413187387890039 0.004941686338558043 7.432110526504509 0.017586142152403172 7.440142487512952 0.03697868949950256 C 7.448174448521395 0.056371236846601835 7.443733383464886 0.07869262522220655 7.428890250323325 0.09353394217160577 C 7.414047117181764 0.10837525912100487 7.391725185535381 0.11281359275255337 7.372333621176981 0.10477925880476135 C 7.352942056818581 0.09674492485696934 7.340299916658948 0.07782023912549829 7.3403024849854015 0.05683016328822871 C 7.340301923369853 0.04306721113695616 7.345769420704126 0.029867885291748886 7.355501892917505 0.020136603934753028 C 7.365234365130883 0.010405322577757059 7.378434359916163 0.00493944044064204 7.392197311895656 0.004941686181428984 Z M 7.772404492445163 0.31106571000180133 C 7.795651729747636 0.3110680480524141 7.814495443790129 0.3299155527603929 7.81449310581789 0.35316279006287404 C 7.814490767845651 0.37641002736535517 7.795643263201201 0.39525374147138864 7.772396025898711 0.3952514035775238 C 7.749148788596223 0.39524906568365875 7.7303050744266475 0.3764015611027363 7.730307412242139 0.3531543238002394 C 7.730308534900743 0.3419906066540262 7.73474438097617 0.3312845722783491 7.742639114952922 0.3233914260604582 C 7.750533848929677 0.3154982798425669 7.7612407752989885 0.31106458723028835 7.772404492445177 0.31106571000180133 Z M 7.2699784118924615 0.7592179039555804 C 7.29096743920641 0.7592179040254179 7.309889672197221 0.7718616150683577 7.317921429694586 0.7912531116348736 C 7.325953187191952 0.8106446082013894 7.321512691230254 0.8329649201595593 7.30667060231891 0.8478057983119272 C 7.291828513407565 0.8626466764642953 7.2695078392707755 0.8670853515340817 7.2501169979945566 0.8590520121172416 C 7.2307261567183385 0.851018672700401 7.218083989381442 0.8320954083064913 7.218085701583369 0.81110638106238 C 7.218088039381606 0.7824484817135349 7.241320512448334 0.759217903860206 7.269978411892498 0.7592179039555804 Z M 7.559565430955118 0.7762120945609443 C 7.580553602051099 0.7762138070422162 7.599474031595451 0.7888585460649162 7.607503879421675 0.8082499068416751 C 7.6155337272479 0.8276412676184339 7.611091591489322 0.8499603067778017 7.596248897305922 0.8647993686842981 C 7.581406203122524 0.8796384305907945 7.559086077427299 0.8840751036736816 7.539696682521404 0.8760405100890625 C 7.52030728761551 0.8680059165044434 7.5076671797108965 0.8490823927507984 7.507670604044878 0.8280942218643044 C 7.507672288014431 0.8143325420712695 7.513140709078057 0.8011351738201444 7.52287287699934 0.7914053875371672 C 7.532605044920622 0.7816756012541899 7.545803751162204 0.7762104103853049 7.559565430955166 0.7762120945609445 Z M 7.740405716312158 0.46824239454081135 C 7.7613945510233515 0.4682423945582708 7.7803166501526615 0.48088587654805676 7.788348531717045 0.5002771132561556 C 7.796380413281427 0.5196683499642545 7.791940305299492 0.5419884958731467 7.777098655268296 0.5568295405427552 C 7.7622570052371005 0.5716705852123634 7.739936678239848 0.576109782777378 7.720545769159145 0.5680771102733058 C 7.701154860078441 0.5600444377692337 7.688512149909958 0.5411218229424917 7.688513006003065 0.5201329882487578 C 7.688517680710961 0.49147571469616375 7.711748442592729 0.4682459003512847 7.740405716312159 0.46824239454081146 Z M 7.740405716312158 0.13635933476735929 C 7.761393694904925 0.13636019093030433 7.780314506483777 0.14900392903984133 7.788345269463321 0.16839470241559418 C 7.796376032442865 0.18778547579134702 7.79193519513332 0.21010453016592007 7.777093545120028 0.22494436409445173 C 7.762251895106737 0.2397841980229834 7.739932297467085 0.24422230408176848 7.720542506973516 0.236189168283159 C 7.701152716479946 0.22815603248454958 7.688511293834315 0.2092336738134029 7.688513006003066 0.18824569527301233 C 7.688515343801303 0.15958779592416705 7.711747816868032 0.1363572180708384 7.740405716312194 0.13635721816621277 Z" fill="#3682ae" transform="matrix(1,0,0,1,0,0)" fill-rule="evenodd"></path></g></g><g><path d=" M 0.555 0.508 L 0.149 0.508 L 0.06 0.705 L 0.005 0.705 L 0.327 0.004999999999999893 L 0.378 0.004999999999999893 L 0.7000000000000001 0.705 L 0.645 0.705 L 0.555 0.508 M 0.536 0.46499999999999997 L 0.352 0.06099999999999994 L 0.169 0.46499999999999997 L 0.536 0.46499999999999997 M 0.82701708984375 0.004999999999999893 L 0.87801708984375 0.004999999999999893 L 0.87801708984375 0.6589999999999999 L 1.28101708984375 0.6589999999999999 L 1.28101708984375 0.705 L 0.82701708984375 0.705 L 0.82701708984375 0.004999999999999893 M 1.8950390625 0.6589999999999999 L 1.8950390625 0.705 L 1.4120390624999999 0.705 L 1.4120390624999999 0.004999999999999893 L 1.8800390624999999 0.004999999999999893 L 1.8800390624999999 0.050999999999999934 L 1.4630390625 0.050999999999999934 L 1.4630390625 0.32699999999999996 L 1.8360390625 0.32699999999999996 L 1.8360390625 0.37199999999999994 L 1.4630390625 0.37199999999999994 L 1.4630390625 0.6589999999999999 L 1.8950390625 0.6589999999999999 M 2.03754541015625 0.6835 Q 1.98804541015625 0.6569999999999999 1.95804541015625 0.61 L 1.98904541015625 0.576 Q 2.01804541015625 0.619 2.05754541015625 0.6415 Q 2.09704541015625 0.6639999999999999 2.14404541015625 0.6639999999999999 Q 2.21404541015625 0.6639999999999999 2.24854541015625 0.6234999999999999 Q 2.28304541015625 0.583 2.28304541015625 0.49899999999999994 L 2.28304541015625 0.050999999999999934 L 2.02504541015625 0.050999999999999934 L 2.02504541015625 0.004999999999999893 L 2.33404541015625 0.004999999999999893 L 2.33404541015625 0.49899999999999994 Q 2.33404541015625 0.604 2.28604541015625 0.6569999999999999 Q 2.23804541015625 0.71 2.14404541015625 0.71 Q 2.08704541015625 0.71 2.03754541015625 0.6835 M 2.99005859375 0.508 L 2.58405859375 0.508 L 2.49505859375 0.705 L 2.44005859375 0.705 L 2.76205859375 0.004999999999999893 L 2.81305859375 0.004999999999999893 L 3.13505859375 0.705 L 3.08005859375 0.705 L 2.99005859375 0.508 M 2.97105859375 0.46499999999999997 L 2.78705859375 0.06099999999999994 L 2.60405859375 0.46499999999999997 L 2.97105859375 0.46499999999999997 M 3.83207568359375 0.004999999999999893 L 3.83207568359375 0.705 L 3.79007568359375 0.705 L 3.31307568359375 0.09699999999999998 L 3.31307568359375 0.705 L 3.26207568359375 0.705 L 3.26207568359375 0.004999999999999893 L 3.30507568359375 0.004999999999999893 L 3.78107568359375 0.613 L 3.78107568359375 0.004999999999999893 L 3.83207568359375 0.004999999999999893 M 4.0761015625 0.004999999999999893 L 4.3531015625 0.004999999999999893 Q 4.4621015625 0.004999999999999893 4.5466015625 0.04999999999999993 Q 4.6311015625 0.09499999999999997 4.6781015625 0.1745 Q 4.7251015625 0.25399999999999995 4.7251015625 0.3549999999999999 Q 4.7251015625 0.45599999999999996 4.6781015625 0.5355 Q 4.6311015625 0.615 4.5466015625 0.6599999999999999 Q 4.4621015625 0.705 4.3531015625 0.705 L 4.0761015625 0.705 L 4.0761015625 0.004999999999999893 M 4.3491015625 0.6589999999999999 Q 4.4461015625 0.6589999999999999 4.5201015625 0.6204999999999999 Q 4.5941015625 0.582 4.6341015625 0.5129999999999999 Q 4.6741015625 0.44399999999999995 4.6741015625 0.3549999999999999 Q 4.6741015625 0.26599999999999996 4.6341015625 0.19699999999999995 Q 4.5941015625 0.128 4.5201015625 0.08949999999999991 Q 4.4461015625 0.050999999999999934 4.3491015625 0.050999999999999934 L 4.1271015625 0.050999999999999934 L 4.1271015625 0.6589999999999999 L 4.3491015625 0.6589999999999999 M 5.38809033203125 0.705 L 5.22109033203125 0.471 Q 5.18409033203125 0.476 5.15309033203125 0.476 L 4.95309033203125 0.476 L 4.95309033203125 0.705 L 4.90209033203125 0.705 L 4.90209033203125 0.004999999999999893 L 5.15309033203125 0.004999999999999893 Q 5.28509033203125 0.004999999999999893 5.36009033203125 0.0674999999999999 Q 5.43509033203125 0.1299999999999999 5.43509033203125 0.24099999999999994 Q 5.43509033203125 0.32399999999999995 5.39259033203125 0.38049999999999995 Q 5.35009033203125 0.43699999999999994 5.27109033203125 0.45999999999999996 L 5.44609033203125 0.705 L 5.38809033203125 0.705 M 5.15309033203125 0.43099999999999994 Q 5.26509033203125 0.43099999999999994 5.3240903320312505 0.38149999999999995 Q 5.38309033203125 0.33199999999999996 5.38309033203125 0.24099999999999994 Q 5.38309033203125 0.1499999999999999 5.3240903320312505 0.10049999999999992 Q 5.26509033203125 0.050999999999999934 5.15309033203125 0.050999999999999934 L 4.95309033203125 0.050999999999999934 L 4.95309033203125 0.43099999999999994 L 5.15309033203125 0.43099999999999994 M 5.73306103515625 0.6635 Q 5.65006103515625 0.617 5.60256103515625 0.5359999999999999 Q 5.55506103515625 0.45499999999999996 5.55506103515625 0.3549999999999999 Q 5.55506103515625 0.25499999999999995 5.60256103515625 0.17399999999999993 Q 5.65006103515625 0.09299999999999997 5.73306103515625 0.046499999999999986 Q 5.81606103515625 0 5.91906103515625 0 Q 6.02206103515625 0 6.10506103515625 0.04599999999999993 Q 6.18806103515625 0.09199999999999997 6.23556103515625 0.17299999999999993 Q 6.28306103515625 0.25399999999999995 6.28306103515625 0.3549999999999999 Q 6.28306103515625 0.45599999999999996 6.23556103515625 0.5369999999999999 Q 6.18806103515625 0.618 6.10506103515625 0.6639999999999999 Q 6.02206103515625 0.71 5.91906103515625 0.71 Q 5.81606103515625 0.71 5.73306103515625 0.6635 M 6.07806103515625 0.623 Q 6.14906103515625 0.583 6.19006103515625 0.5125 Q 6.23106103515625 0.44199999999999995 6.23106103515625 0.3549999999999999 Q 6.23106103515625 0.26799999999999996 6.19006103515625 0.1974999999999999 Q 6.14906103515625 0.127 6.07806103515625 0.08699999999999997 Q 6.00706103515625 0.04699999999999993 5.91906103515625 0.04699999999999993 Q 5.83106103515625 0.04699999999999993 5.75956103515625 0.08699999999999997 Q 5.68806103515625 0.127 5.64706103515625 0.1974999999999999 Q 5.60606103515625 0.26799999999999996 5.60606103515625 0.3549999999999999 Q 5.60606103515625 0.44199999999999995 5.64706103515625 0.5125 Q 5.68806103515625 0.583 5.75956103515625 0.623 Q 5.83106103515625 0.6629999999999999 5.91906103515625 0.6629999999999999 Q 6.00706103515625 0.6629999999999999 6.07806103515625 0.623" fill="#102036" fill-rule="nonzero"></path></g><g><path d=" M 8.4694931062436 0.508 L 8.0634931062436 0.508 L 7.9744931062435995 0.705 L 7.9194931062436 0.705 L 8.2414931062436 0.004999999999999893 L 8.2924931062436 0.004999999999999893 L 8.6144931062436 0.705 L 8.5594931062436 0.705 L 8.4694931062436 0.508 M 8.4504931062436 0.46499999999999997 L 8.2664931062436 0.06099999999999994 L 8.0834931062436 0.46499999999999997 L 8.4504931062436 0.46499999999999997 M 9.227510196087351 0.705 L 9.060510196087352 0.471 Q 9.02351019608735 0.476 8.99251019608735 0.476 L 8.79251019608735 0.476 L 8.79251019608735 0.705 L 8.74151019608735 0.705 L 8.74151019608735 0.004999999999999893 L 8.99251019608735 0.004999999999999893 Q 9.124510196087352 0.004999999999999893 9.19951019608735 0.0674999999999999 Q 9.27451019608735 0.1299999999999999 9.27451019608735 0.24099999999999994 Q 9.27451019608735 0.32399999999999995 9.232010196087352 0.38049999999999995 Q 9.189510196087351 0.43699999999999994 9.11051019608735 0.45999999999999996 L 9.285510196087351 0.705 L 9.227510196087351 0.705 M 8.99251019608735 0.43099999999999994 Q 9.10451019608735 0.43099999999999994 9.163510196087351 0.38149999999999995 Q 9.22251019608735 0.33199999999999996 9.22251019608735 0.24099999999999994 Q 9.22251019608735 0.1499999999999999 9.163510196087351 0.10049999999999992 Q 9.10451019608735 0.050999999999999934 8.99251019608735 0.050999999999999934 L 8.79251019608735 0.050999999999999934 L 8.79251019608735 0.43099999999999994 L 8.99251019608735 0.43099999999999994 M 10.123480899212352 0.705 L 10.12248089921235 0.10599999999999998 L 9.829480899212351 0.612 L 9.80448089921235 0.612 L 9.511480899212351 0.10799999999999998 L 9.511480899212351 0.705 L 9.46148089921235 0.705 L 9.46148089921235 0.004999999999999893 L 9.50448089921235 0.004999999999999893 L 9.81748089921235 0.5459999999999999 L 10.130480899212351 0.004999999999999893 L 10.172480899212351 0.004999999999999893 L 10.17348089921235 0.705 L 10.123480899212352 0.705 M 10.8504745515561 0.508 L 10.4444745515561 0.508 L 10.355474551556101 0.705 L 10.300474551556102 0.705 L 10.6224745515561 0.004999999999999893 L 10.673474551556101 0.004999999999999893 L 10.9954745515561 0.705 L 10.9404745515561 0.705 L 10.8504745515561 0.508 M 10.8314745515561 0.46499999999999997 L 10.647474551556101 0.06099999999999994 L 10.464474551556101 0.46499999999999997 L 10.8314745515561 0.46499999999999997 M 11.15999164139985 0.6835 Q 11.09049164139985 0.6569999999999999 11.051491641399851 0.615 L 11.07449164139985 0.577 Q 11.111491641399851 0.616 11.173991641399851 0.6405 Q 11.236491641399851 0.6649999999999999 11.30549164139985 0.6649999999999999 Q 11.40549164139985 0.6649999999999999 11.45649164139985 0.627 Q 11.50749164139985 0.589 11.50749164139985 0.528 Q 11.50749164139985 0.481 11.480491641399851 0.45299999999999996 Q 11.45349164139985 0.42499999999999993 11.413491641399851 0.41 Q 11.37349164139985 0.39499999999999996 11.30549164139985 0.37899999999999995 Q 11.22849164139985 0.35999999999999993 11.18199164139985 0.34199999999999997 Q 11.13549164139985 0.32399999999999995 11.10299164139985 0.2865 Q 11.070491641399851 0.24899999999999994 11.070491641399851 0.18599999999999994 Q 11.070491641399851 0.1349999999999999 11.09749164139985 0.09249999999999992 Q 11.124491641399851 0.04999999999999993 11.179991641399852 0.02499999999999991 Q 11.23549164139985 0 11.31849164139985 0 Q 11.37649164139985 0 11.432491641399851 0.016999999999999904 Q 11.48849164139985 0.03399999999999992 11.52949164139985 0.06299999999999994 L 11.51049164139985 0.10399999999999998 Q 11.46849164139985 0.07499999999999996 11.417991641399851 0.05999999999999994 Q 11.367491641399852 0.04499999999999993 11.31849164139985 0.04499999999999993 Q 11.221491641399851 0.04499999999999993 11.17149164139985 0.08399999999999996 Q 11.121491641399851 0.123 11.121491641399851 0.18499999999999994 Q 11.121491641399851 0.23199999999999993 11.14849164139985 0.25999999999999995 Q 11.175491641399852 0.288 11.21549164139985 0.30299999999999994 Q 11.255491641399852 0.31799999999999995 11.32449164139985 0.33499999999999996 Q 11.40149164139985 0.3539999999999999 11.44749164139985 0.37199999999999994 Q 11.493491641399851 0.38999999999999996 11.52599164139985 0.42649999999999993 Q 11.55849164139985 0.46299999999999997 11.55849164139985 0.5249999999999999 Q 11.55849164139985 0.576 11.53099164139985 0.618 Q 11.503491641399851 0.6599999999999999 11.44649164139985 0.6849999999999999 Q 11.38949164139985 0.71 11.30649164139985 0.71 Q 11.22949164139985 0.71 11.15999164139985 0.6835" fill="#102036" fill-rule="nonzero"></path></g><g><path d=" M 2.9929939896452376 1.79775 Q 2.957243989645238 1.78525 2.9377439896452375 1.76475 L 2.9522439896452375 1.73625 Q 2.9712439896452376 1.75525 3.0027439896452375 1.7670000000000001 Q 3.034243989645238 1.77875 3.067743989645238 1.77875 Q 3.1147439896452376 1.77875 3.138243989645238 1.7615 Q 3.1617439896452377 1.74425 3.1617439896452377 1.71675 Q 3.1617439896452377 1.69575 3.1489939896452377 1.6832500000000001 Q 3.1362439896452377 1.67075 3.1177439896452377 1.664 Q 3.0992439896452377 1.6572500000000001 3.066243989645238 1.64925 Q 3.0267439896452375 1.63925 3.0032439896452376 1.6300000000000001 Q 2.979743989645238 1.6207500000000001 2.9629939896452377 1.60175 Q 2.9462439896452377 1.58275 2.9462439896452377 1.5502500000000001 Q 2.9462439896452377 1.52375 2.9602439896452375 1.502 Q 2.9742439896452377 1.48025 3.0032439896452376 1.46725 Q 3.0322439896452376 1.45425 3.0752439896452377 1.45425 Q 3.1052439896452375 1.45425 3.1339939896452376 1.4625 Q 3.1627439896452376 1.47075 3.1837439896452375 1.48525 L 3.171243989645238 1.51475 Q 3.1492439896452376 1.50025 3.1242439896452376 1.4929999999999999 Q 3.0992439896452377 1.48575 3.0752439896452377 1.48575 Q 3.029243989645238 1.48575 3.005993989645238 1.5035 Q 2.982743989645238 1.52125 2.982743989645238 1.54925 Q 2.982743989645238 1.57025 2.9954939896452375 1.583 Q 3.0082439896452375 1.59575 3.0274939896452375 1.6025 Q 3.0467439896452375 1.60925 3.0792439896452377 1.61725 Q 3.1177439896452377 1.62675 3.141493989645238 1.6360000000000001 Q 3.1652439896452376 1.64525 3.1817439896452377 1.664 Q 3.1982439896452375 1.68275 3.1982439896452375 1.71475 Q 3.1982439896452375 1.74125 3.183993989645238 1.7630000000000001 Q 3.1697439896452377 1.78475 3.1402439896452377 1.7975 Q 3.1107439896452376 1.81025 3.067743989645238 1.81025 Q 3.0287439896452377 1.81025 2.9929939896452376 1.79775 M 3.3382391068327375 1.787 Q 3.295989106832738 1.76375 3.2722391068327377 1.72325 Q 3.2484891068327375 1.68275 3.2484891068327375 1.63225 Q 3.2484891068327375 1.58175 3.2722391068327377 1.54125 Q 3.295989106832738 1.50075 3.3382391068327375 1.4775 Q 3.3804891068327376 1.45425 3.4324891068327377 1.45425 Q 3.4844891068327377 1.45425 3.5262391068327377 1.47725 Q 3.5679891068327376 1.50025 3.5919891068327376 1.541 Q 3.6159891068327377 1.58175 3.6159891068327377 1.63225 Q 3.6159891068327377 1.68275 3.5919891068327376 1.7235 Q 3.5679891068327376 1.76425 3.5262391068327377 1.78725 Q 3.4844891068327377 1.81025 3.4324891068327377 1.81025 Q 3.3804891068327376 1.81025 3.3382391068327375 1.787 M 3.507489106832738 1.7585 Q 3.540989106832738 1.73975 3.5599891068327376 1.7065000000000001 Q 3.5789891068327377 1.67325 3.5789891068327377 1.63225 Q 3.5789891068327377 1.59125 3.5599891068327376 1.558 Q 3.540989106832738 1.52475 3.507489106832738 1.506 Q 3.4739891068327378 1.48725 3.4324891068327377 1.48725 Q 3.3909891068327376 1.48725 3.3572391068327376 1.506 Q 3.3234891068327377 1.52475 3.3042391068327377 1.558 Q 3.2849891068327377 1.59125 3.2849891068327377 1.63225 Q 3.2849891068327377 1.67325 3.3042391068327377 1.7065000000000001 Q 3.3234891068327377 1.73975 3.3572391068327376 1.7585 Q 3.3909891068327376 1.77725 3.4324891068327377 1.77725 Q 3.4739891068327378 1.77725 3.507489106832738 1.7585 M 3.7367337357389876 1.48925 L 3.7367337357389876 1.62675 L 3.9177337357389876 1.62675 L 3.9177337357389876 1.65875 L 3.7367337357389876 1.65875 L 3.7367337357389876 1.80725 L 3.6997337357389877 1.80725 L 3.6997337357389877 1.45725 L 3.939733735738988 1.45725 L 3.939733735738988 1.48925 L 3.7367337357389876 1.48925 M 4.087483979879613 1.48925 L 3.9644839798796125 1.48925 L 3.9644839798796125 1.45725 L 4.247483979879613 1.45725 L 4.247483979879613 1.48925 L 4.124483979879613 1.48925 L 4.124483979879613 1.80725 L 4.087483979879613 1.80725 L 4.087483979879613 1.48925 M 4.785218843160862 1.45725 L 4.667218843160863 1.80725 L 4.628218843160862 1.80725 L 4.525718843160863 1.50875 L 4.422718843160863 1.80725 L 4.384218843160863 1.80725 L 4.266218843160863 1.45725 L 4.304218843160863 1.45725 L 4.4052188431608625 1.75825 L 4.509718843160863 1.45725 L 4.544218843160863 1.45725 L 4.6472188431608625 1.75975 L 4.749718843160863 1.45725 L 4.785218843160862 1.45725 M 5.062474946676488 1.71375 L 4.867474946676488 1.71375 L 4.825474946676488 1.80725 L 4.786974946676488 1.80725 L 4.946974946676487 1.45725 L 4.983474946676488 1.45725 L 5.143474946676488 1.80725 L 5.104474946676488 1.80725 L 5.062474946676488 1.71375 M 5.048974946676488 1.68375 L 4.964974946676488 1.4957500000000001 L 4.880974946676488 1.68375 L 5.048974946676488 1.68375 M 5.441214936910863 1.80725 L 5.361214936910863 1.69475 Q 5.3477149369108625 1.69625 5.333214936910863 1.69625 L 5.239214936910863 1.69625 L 5.239214936910863 1.80725 L 5.202214936910863 1.80725 L 5.202214936910863 1.45725 L 5.333214936910863 1.45725 Q 5.400214936910863 1.45725 5.438214936910863 1.48925 Q 5.476214936910863 1.52125 5.476214936910863 1.57725 Q 5.476214936910863 1.61825 5.455464936910863 1.6465 Q 5.434714936910863 1.67475 5.396214936910863 1.6872500000000001 L 5.481714936910863 1.80725 L 5.441214936910863 1.80725 M 5.411714936910863 1.64175 Q 5.439214936910862 1.61875 5.439214936910862 1.57725 Q 5.439214936910862 1.53475 5.411714936910863 1.512 Q 5.384214936910863 1.48925 5.332214936910863 1.48925 L 5.239214936910863 1.48925 L 5.239214936910863 1.66475 L 5.332214936910863 1.66475 Q 5.384214936910863 1.66475 5.411714936910863 1.64175 M 5.811976167379613 1.77525 L 5.811976167379613 1.80725 L 5.564476167379613 1.80725 L 5.564476167379613 1.45725 L 5.804476167379613 1.45725 L 5.804476167379613 1.48925 L 5.601476167379613 1.48925 L 5.601476167379613 1.61375 L 5.782476167379613 1.61375 L 5.782476167379613 1.64525 L 5.601476167379613 1.64525 L 5.601476167379613 1.77525 L 5.811976167379613 1.77525 M 6.278991304098363 1.77525 L 6.278991304098363 1.80725 L 6.031491304098363 1.80725 L 6.031491304098363 1.45725 L 6.271491304098363 1.45725 L 6.271491304098363 1.48925 L 6.068491304098363 1.48925 L 6.068491304098363 1.61375 L 6.249491304098363 1.61375 L 6.249491304098363 1.64525 L 6.068491304098363 1.64525 L 6.068491304098363 1.77525 L 6.278991304098363 1.77525 M 6.659244477926488 1.45725 L 6.659244477926488 1.80725 L 6.628744477926488 1.80725 L 6.403744477926488 1.52325 L 6.403744477926488 1.80725 L 6.366744477926488 1.80725 L 6.366744477926488 1.45725 L 6.397244477926488 1.45725 L 6.622744477926488 1.74125 L 6.622744477926488 1.45725 L 6.659244477926488 1.45725 M 7.020488618551488 1.63225 L 7.055988618551488 1.63225 L 7.055988618551488 1.76575 Q 7.031488618551488 1.78725 6.997988618551488 1.79875 Q 6.964488618551488 1.81025 6.927488618551488 1.81025 Q 6.874988618551488 1.81025 6.832988618551488 1.78725 Q 6.790988618551488 1.76425 6.766988618551488 1.7235 Q 6.742988618551488 1.68275 6.742988618551488 1.63225 Q 6.742988618551488 1.58175 6.766988618551488 1.541 Q 6.790988618551488 1.50025 6.832988618551488 1.47725 Q 6.874988618551488 1.45425 6.927988618551488 1.45425 Q 6.967988618551488 1.45425 7.001488618551488 1.467 Q 7.034988618551488 1.4797500000000001 7.057988618551488 1.50475 L 7.034988618551488 1.5282499999999999 Q 6.993488618551488 1.48725 6.929488618551488 1.48725 Q 6.886988618551488 1.48725 6.852738618551488 1.506 Q 6.818488618551488 1.52475 6.798988618551488 1.558 Q 6.779488618551488 1.59125 6.779488618551488 1.63225 Q 6.779488618551488 1.67325 6.798988618551488 1.70625 Q 6.818488618551488 1.73925 6.852488618551488 1.75825 Q 6.886488618551488 1.77725 6.928988618551488 1.77725 Q 6.982988618551488 1.77725 7.020488618551488 1.75025 L 7.020488618551488 1.63225 M 7.161243745504613 1.45725 L 7.198243745504613 1.45725 L 7.198243745504613 1.80725 L 7.161243745504613 1.80725 L 7.161243745504613 1.45725 M 7.605494722067113 1.45725 L 7.605494722067113 1.80725 L 7.574994722067113 1.80725 L 7.349994722067113 1.52325 L 7.349994722067113 1.80725 L 7.312994722067113 1.80725 L 7.312994722067113 1.45725 L 7.343494722067113 1.45725 L 7.568994722067113 1.74125 L 7.568994722067113 1.45725 L 7.605494722067113 1.45725 M 7.967738862692113 1.77525 L 7.967738862692113 1.80725 L 7.7202388626921135 1.80725 L 7.7202388626921135 1.45725 L 7.960238862692113 1.45725 L 7.960238862692113 1.48925 L 7.757238862692113 1.48925 L 7.757238862692113 1.61375 L 7.938238862692113 1.61375 L 7.938238862692113 1.64525 L 7.757238862692113 1.64525 L 7.757238862692113 1.77525 L 7.967738862692113 1.77525 M 8.302992036520237 1.77525 L 8.302992036520237 1.80725 L 8.055492036520238 1.80725 L 8.055492036520238 1.45725 L 8.295492036520239 1.45725 L 8.295492036520239 1.48925 L 8.092492036520238 1.48925 L 8.092492036520238 1.61375 L 8.273492036520238 1.61375 L 8.273492036520238 1.64525 L 8.092492036520238 1.64525 L 8.092492036520238 1.77525 L 8.302992036520237 1.77525 M 8.629745210348363 1.80725 L 8.549745210348362 1.69475 Q 8.536245210348364 1.69625 8.521745210348364 1.69625 L 8.427745210348363 1.69625 L 8.427745210348363 1.80725 L 8.390745210348364 1.80725 L 8.390745210348364 1.45725 L 8.521745210348364 1.45725 Q 8.588745210348364 1.45725 8.626745210348362 1.48925 Q 8.664745210348363 1.52125 8.664745210348363 1.57725 Q 8.664745210348363 1.61825 8.643995210348363 1.6465 Q 8.623245210348363 1.67475 8.584745210348363 1.6872500000000001 L 8.670245210348362 1.80725 L 8.629745210348363 1.80725 M 8.600245210348364 1.64175 Q 8.627745210348364 1.61875 8.627745210348364 1.57725 Q 8.627745210348364 1.53475 8.600245210348364 1.512 Q 8.572745210348364 1.48925 8.520745210348363 1.48925 L 8.427745210348363 1.48925 L 8.427745210348363 1.66475 L 8.520745210348363 1.66475 Q 8.572745210348364 1.66475 8.600245210348364 1.64175" fill="#3682ae" fill-rule="nonzero"></path></g></g><defs><clipPath id="SvgjsClipPath55625"><path d=" M 6.43807373046875 -0.2442499999999999 h 1.3764193757748509 v 1.1985 h -1.3764193757748509 Z"></path></clipPath><clipPath id="SvgjsClipPath55620d7809b8c-c101-4372-a18a-88c2dcd6ee2e"><path d=" M 6.43807373046875 -0.24425000000000002 L 7.8144931062436 -0.24425000000000002 L 7.8144931062436 0.95425 L 6.43807373046875 0.95425 Z"></path></clipPath></defs></svg>